<?xml version="1.0" encoding="utf-8"?>
<!-- Generator: Adobe Illustrator 20.1.0, SVG Export Plug-In . SVG Version: 6.00 Build 0)  -->
<svg version="1.1" id="Layer_1" xmlns="http://www.w3.org/2000/svg" xmlns:xlink="http://www.w3.org/1999/xlink" x="0px" y="0px"
	 viewBox="0 0 400 225" style="enable-background:new 0 0 400 225;" xml:space="preserve">
<style type="text/css">
	.st0{fill:none;}
	.st1{fill:#8DB7E2;}
	.st2{fill:#6AC9A6;}
	.st3{fill:#65BA6E;}
	.st4{fill:#FFFFFF;}
	.st5{fill:#F05F5F;}
	.st6{fill:#D34444;}
	.st7{opacity:0.8;fill:#FFFFFF;}
</style>
<title>multiple choice</title>
<g>
	<g id="Layer_2_1_">
		<g id="multiple_choice_1_">
			<rect y="323.5" class="st0" width="400" height="225"/>
		</g>
	</g>
</g>
<g>
	<path class="st1" d="M294,54.2V31c0-0.8-0.6-1.4-1.4-1.4h-85.4c-0.8,0-1.4,0.6-1.4,1.4v3.1h0.2c1.5,0,2.8,1.7,2.8,3.9v9.3
		c0,2.1-1.3,3.9-2.8,3.9h-0.2v3.1c0,0.8,0.6,1.4,1.4,1.4h85.4C293.4,55.6,294,54.9,294,54.2z"/>
</g>
<path class="st1" d="M197,35.4h-1.5V31c0-0.8-0.6-1.4-1.4-1.4h-85.4c-0.8,0-1.4,0.6-1.4,1.4v23.2c0,0.8,0.6,1.4,1.4,1.4h85.4
	c0.8,0,1.4-0.6,1.4-1.4v-4.3h0v0h1c1.5,0,2.8-1.7,2.8-3.9v-6.6C199.3,37.3,198.3,35.8,197,35.4z"/>
<g>
	<g id="Layer_2_2_">
		<g id="multiple_choice_2_">
			<rect y="0" class="st0" width="400" height="225"/>
		</g>
	</g>
</g>
<g>
	<path class="st1" d="M294,124.3v-23.2c0-0.8-0.6-1.4-1.4-1.4h-85.4c-0.8,0-1.4,0.6-1.4,1.4v3.1h0.2c1.5,0,2.8,1.7,2.8,3.9v9.3
		c0,2.1-1.3,3.9-2.8,3.9h-0.2v3.1c0,0.8,0.6,1.4,1.4,1.4h85.4C293.4,125.7,294,125.1,294,124.3z"/>
</g>
<path class="st1" d="M197,105.6h-1.5v-4.5c0-0.8-0.6-1.4-1.4-1.4h-85.4c-0.8,0-1.4,0.6-1.4,1.4v23.2c0,0.8,0.6,1.4,1.4,1.4h85.4
	c0.8,0,1.4-0.6,1.4-1.4V120h0v0h1c1.5,0,2.8-1.7,2.8-3.9v-6.6C199.3,107.5,198.3,105.9,197,105.6z"/>
<g>
	<path class="st1" d="M294,194.6v-23.2c0-0.8-0.6-1.4-1.4-1.4h-85.4c-0.8,0-1.4,0.6-1.4,1.4v3.1h0.2c1.5,0,2.8,1.7,2.8,3.9v9.3
		c0,2.1-1.3,3.9-2.8,3.9h-0.2v3.1c0,0.8,0.6,1.4,1.4,1.4h85.4C293.4,196,294,195.3,294,194.6z"/>
</g>
<path class="st1" d="M197,175.8h-1.5v-4.5c0-0.8-0.6-1.4-1.4-1.4h-85.4c-0.8,0-1.4,0.6-1.4,1.4v23.2c0,0.8,0.6,1.4,1.4,1.4h85.4
	c0.8,0,1.4-0.6,1.4-1.4v-4.3h0v0h1c1.5,0,2.8-1.7,2.8-3.9v-6.6C199.3,177.7,198.3,176.2,197,175.8z"/>
<g>
	<path class="st2" d="M185.3,77.6c0-5.2,2.4-9.8,6.1-12.9h-76.1c-0.8,0-1.4,0.6-1.4,1.4v23c0,0.8,0.6,1.4,1.4,1.4h76.1
		C187.7,87.4,185.3,82.7,185.3,77.6z"/>
	<path class="st2" d="M287.4,64.7h-74.6c3.7,3.1,6.1,7.7,6.1,12.9c0,5.2-2.4,9.8-6.1,12.9h74.6c0.8,0,1.4-0.6,1.4-1.4v-23
		C288.8,65.3,288.1,64.7,287.4,64.7z"/>
</g>
<g>
	<circle class="st3" cx="202.1" cy="77.6" r="11.8"/>
</g>
<g>
	<path class="st4" d="M208.3,75.5l-5.5,5.5l-1,1c-0.1,0.1-0.3,0.2-0.5,0.2c-0.2,0-0.4-0.1-0.5-0.2l-1-1l-2.8-2.8
		c-0.1-0.1-0.2-0.3-0.2-0.5c0-0.2,0.1-0.4,0.2-0.5l1-1c0.1-0.1,0.3-0.2,0.5-0.2c0.2,0,0.4,0.1,0.5,0.2l2.2,2.3l5-5
		c0.1-0.1,0.3-0.2,0.5-0.2c0.2,0,0.4,0.1,0.5,0.2l1,1c0.1,0.1,0.2,0.3,0.2,0.5C208.5,75.2,208.4,75.4,208.3,75.5z"/>
</g>
<path class="st5" d="M185.3,147.8c0-5.2,2.4-9.8,6.1-12.9h-76.1c-0.8,0-1.4,0.6-1.4,1.4v23c0,0.8,0.6,1.4,1.4,1.4h76.1
	C187.7,157.7,185.3,153,185.3,147.8z"/>
<path class="st5" d="M287.4,135h-74.6c3.7,3.1,6.1,7.7,6.1,12.9c0,5.2-2.4,9.8-6.1,12.9h74.6c0.8,0,1.4-0.6,1.4-1.4v-23
	C288.8,135.6,288.1,135,287.4,135z"/>
<g>
	<circle class="st6" cx="202.1" cy="147.8" r="11.8"/>
</g>
<g>
	<path class="st4" d="M206.9,151.1l-1.1,1.1c-0.1,0.1-0.4,0.2-0.6,0.2c-0.2,0-0.4-0.1-0.6-0.2l-2.4-2.4l-2.4,2.4
		c-0.1,0.1-0.4,0.2-0.6,0.2c-0.2,0-0.4-0.1-0.6-0.2l-1.1-1.1c-0.1-0.1-0.2-0.4-0.2-0.6c0-0.2,0.1-0.4,0.2-0.6l2.4-2.4l-2.4-2.4
		c-0.1-0.1-0.2-0.4-0.2-0.6c0-0.2,0.1-0.4,0.2-0.6l1.1-1.1c0.1-0.1,0.4-0.2,0.6-0.2c0.2,0,0.4,0.1,0.6,0.2l2.4,2.4l2.4-2.4
		c0.1-0.1,0.4-0.2,0.6-0.2c0.2,0,0.4,0.1,0.6,0.2l1.1,1.1c0.1,0.1,0.2,0.4,0.2,0.6c0,0.2-0.1,0.4-0.2,0.6l-2.4,2.4l2.4,2.4
		c0.1,0.1,0.2,0.4,0.2,0.6C207.1,150.8,207,151,206.9,151.1z"/>
</g>
<path class="st7" d="M143.2,44.3h-22.7c-0.9,0-1.7-0.8-1.7-1.7v-0.1c0-0.9,0.8-1.7,1.7-1.7h22.7c0.9,0,1.7,0.8,1.7,1.7v0.1
	C144.9,43.6,144.1,44.3,143.2,44.3z"/>
<path class="st7" d="M148.8,79.3h-22.7c-0.9,0-1.7-0.8-1.7-1.7v-0.1c0-0.9,0.8-1.7,1.7-1.7h22.7c0.9,0,1.7,0.8,1.7,1.7v0.1
	C150.4,78.5,149.7,79.3,148.8,79.3z"/>
<path class="st7" d="M143.2,114.5h-22.7c-0.9,0-1.7-0.8-1.7-1.7v-0.1c0-0.9,0.8-1.7,1.7-1.7h22.7c0.9,0,1.7,0.8,1.7,1.7v0.1
	C144.9,113.7,144.1,114.5,143.2,114.5z"/>
<path class="st7" d="M143.2,184.7h-22.7c-0.9,0-1.7-0.8-1.7-1.7v-0.1c0-0.9,0.8-1.7,1.7-1.7h22.7c0.9,0,1.7,0.8,1.7,1.7v0.1
	C144.9,184,144.1,184.7,143.2,184.7z"/>
<path class="st7" d="M148.8,149.4h-22.7c-0.9,0-1.7-0.8-1.7-1.7v-0.1c0-0.9,0.8-1.7,1.7-1.7h22.7c0.9,0,1.7,0.8,1.7,1.7v0.1
	C150.4,148.7,149.7,149.4,148.8,149.4z"/>
<path class="st7" d="M243.2,44.3h-22.7c-0.9,0-1.7-0.8-1.7-1.7v-0.1c0-0.9,0.8-1.7,1.7-1.7h22.7c0.9,0,1.7,0.8,1.7,1.7v0.1
	C244.9,43.6,244.1,44.3,243.2,44.3z"/>
<path class="st7" d="M248.8,79.3h-22.7c-0.9,0-1.7-0.8-1.7-1.7v-0.1c0-0.9,0.8-1.7,1.7-1.7h22.7c0.9,0,1.7,0.8,1.7,1.7v0.1
	C250.4,78.5,249.7,79.3,248.8,79.3z"/>
<path class="st7" d="M243.2,114.5h-22.7c-0.9,0-1.7-0.8-1.7-1.7v-0.1c0-0.9,0.8-1.7,1.7-1.7h22.7c0.9,0,1.7,0.8,1.7,1.7v0.1
	C244.9,113.7,244.1,114.5,243.2,114.5z"/>
<path class="st7" d="M243.2,184.7h-22.7c-0.9,0-1.7-0.8-1.7-1.7v-0.1c0-0.9,0.8-1.7,1.7-1.7h22.7c0.9,0,1.7,0.8,1.7,1.7v0.1
	C244.9,184,244.1,184.7,243.2,184.7z"/>
<path class="st7" d="M248.8,149.4h-22.7c-0.9,0-1.7-0.8-1.7-1.7v-0.1c0-0.9,0.8-1.7,1.7-1.7h22.7c0.9,0,1.7,0.8,1.7,1.7v0.1
	C250.4,148.7,249.7,149.4,248.8,149.4z"/>
</svg>
