<?xml version="1.0" encoding="utf-8"?>
<!-- Generator: Adobe Illustrator 20.1.0, SVG Export Plug-In . SVG Version: 6.00 Build 0)  -->
<svg version="1.1" id="puzzle-right" xmlns="http://www.w3.org/2000/svg" xmlns:xlink="http://www.w3.org/1999/xlink" x="0px" y="0px"
	 viewBox="0 0 86.8 644.1" style="enable-background:new 0 0 86.8 644.1;" xml:space="preserve">
<defs>
    <linearGradient id="puzzle-none" gradientUnits="userSpaceOnUse" x1="44.9" y1="6.9" x2="44.9" y2="637">
      <stop  offset="0" style="stop-color:#f1fbfd"/>
      <stop  offset="1" style="stop-color:#e3f1f4"/>
    </linearGradient>
    <linearGradient id="puzzle-hover" gradientUnits="userSpaceOnUse" x1="44.9" y1="6.9" x2="44.9" y2="637">
      <stop  offset="0" style="stop-color:#f9edf7"/>
      <stop  offset="1" style="stop-color:#f2e2ef"/>
    </linearGradient>
    <linearGradient id="puzzle-matched" gradientUnits="userSpaceOnUse" x1="44.9" y1="6.9" x2="44.9" y2="637">
      <stop  offset="0" style="stop-color:#4c93e5"/>
      <stop  offset="1" style="stop-color:#1b72db"/>
    </linearGradient>
    <linearGradient id="puzzle-success" gradientUnits="userSpaceOnUse" x1="44.9" y1="6.9" x2="44.9" y2="637">
      <stop  offset="0" style="stop-color:#50c9a8"/>
      <stop  offset="1" style="stop-color:#3ea98b"/>
    </linearGradient>
    <linearGradient id="puzzle-failure" gradientUnits="userSpaceOnUse" x1="44.9" y1="6.9" x2="44.9" y2="637">
      <stop  offset="0" style="stop-color:#e54b55"/>
      <stop  offset="1" style="stop-color:#da1b44"/>
    </linearGradient>
  </defs>
<path class="puzzle-inner" d="M77.8,11.9v91.7c0,6.1-4.3,11.1-10.2,11.9C33,120.3,7.1,160.9,7.1,194v255.9c0,36.5,28.2,72.5,60.4,76.8
	c5.9,0.9,10.2,5.9,10.2,11.9V632c0,2.8,2.1,4.9,4.9,5c0,0,4.2,0,4.2,0V6.9c0,0-4.1,0-4.1,0C79.9,7,77.8,9.2,77.8,11.9z"/>
<path class="puzzle-border" d="M77.7,632v-93.4c0-6-4.3-11-10.2-11.9c-32.2-4.3-60.4-40.3-60.4-76.8V194c0-33.1,25.9-73.7,60.5-78.5
	c5.9-0.8,10.2-5.8,10.2-11.9V11.9c0-2.7,2.1-4.9,4.9-5c0,0,4.1,0,4.1,0V0h-4.2h-1.3c-5.9,0.7-10.5,5.8-10.5,11.9v91.7
	c0,2.5-1.8,4.6-4.2,4.9C27.4,114.1,0.1,158,0.1,194v255.9c0,18.6,7,38.3,19.1,54.2c12.8,16.7,29.6,27.2,47.3,29.6
	c2.4,0.3,4.2,2.4,4.2,4.9V632c0,6.6,5.4,12,11.9,12c0,0,4.1,0,4.2,0v-7c0,0-4.2,0-4.2,0C79.8,636.9,77.7,634.8,77.7,632z"/>
</svg>
