<?xml version="1.0" encoding="utf-8"?>
<!-- Generator: Adobe Illustrator 20.1.0, SVG Export Plug-In . SVG Version: 6.00 Build 0)  -->
<svg version="1.1" id="Layer_1" xmlns="http://www.w3.org/2000/svg" xmlns:xlink="http://www.w3.org/1999/xlink" x="0px" y="0px"
	 viewBox="0 0 86.8 644.1" style="enable-background:new 0 0 86.8 644.1;" xml:space="preserve">
<style type="text/css">
	.puzzle-inner{fill:#FFFFFF;}
	.puzzle-border{fill:#BBD4E5;}
</style>
<path class="puzzle-inner" d="M77.8,11.9v91.7c0,6.1-4.3,11.1-10.2,11.9C33,120.3,7.1,160.9,7.1,194v255.9c0,36.5,28.2,72.5,60.4,76.8
	c5.9,0.9,10.2,5.9,10.2,11.9V632c0,2.8,2.1,4.9,4.9,5c0,0,4.2,0,4.2,0V6.9c0,0-4.1,0-4.1,0C79.9,7,77.8,9.2,77.8,11.9z"/>
<path class="puzzle-border" d="M77.7,632v-93.4c0-6-4.3-11-10.2-11.9c-32.2-4.3-60.4-40.3-60.4-76.8V194c0-33.1,25.9-73.7,60.5-78.5
	c5.9-0.8,10.2-5.8,10.2-11.9V11.9c0-2.7,2.1-4.9,4.9-5c0,0,4.1,0,4.1,0V0h-4.2h-1.3c-5.9,0.7-10.5,5.8-10.5,11.9v91.7
	c0,2.5-1.8,4.6-4.2,4.9C27.4,114.1,0.1,158,0.1,194v255.9c0,18.6,7,38.3,19.1,54.2c12.8,16.7,29.6,27.2,47.3,29.6
	c2.4,0.3,4.2,2.4,4.2,4.9V632c0,6.6,5.4,12,11.9,12c0,0,4.1,0,4.2,0v-7c0,0-4.2,0-4.2,0C79.8,636.9,77.7,634.8,77.7,632z"/>
</svg>
