<?xml version="1.0" encoding="utf-8"?>
<!-- Generator: Adobe Illustrator 20.1.0, SVG Export Plug-In . SVG Version: 6.00 Build 0)  -->
<svg version="1.1" id="Layer_1" xmlns="http://www.w3.org/2000/svg" xmlns:xlink="http://www.w3.org/1999/xlink" x="0px" y="0px"
	 viewBox="0 0 82.8 644.1" style="enable-background:new 0 0 82.8 644.1;" xml:space="preserve">
<style type="text/css">
	.st0{fill:#FFFFFF;}
	.st1{fill:#BBD4E5;}
</style>
<path class="st0" d="M70.7,632v-93.4c0-2.5-1.8-4.6-4.2-4.9c-17.7-2.4-34.5-12.9-47.3-29.6C7.1,488.2,0.1,468.5,0.1,449.9V194
	c0-36,27.3-79.9,66.5-85.5c2.4-0.3,4.2-2.4,4.2-4.9V11.9c0-6.1,4.6-11.2,10.5-11.9H0v644.1h82.8V644h-0.1
	C76.1,644,70.7,638.6,70.7,632z"/>
<path class="st1" d="M81.3,0h1.5v-0.1C82.3-0.1,81.8-0.1,81.3,0z"/>
<path class="st1" d="M70.8,11.9v91.7c0,2.5-1.8,4.6-4.2,4.9C27.4,114.1,0.1,158,0.1,194v255.9c0,18.6,7,38.3,19.1,54.2
	c12.8,16.7,29.6,27.2,47.3,29.6c2.4,0.3,4.2,2.4,4.2,4.9V632c0,6.6,5.4,12,12,12h0.1v-7h-0.1c-2.8,0-5-2.2-5-5v-93.4
	c0-6-4.3-11-10.2-11.9c-32.2-4.3-60.4-40.3-60.4-76.8V194c0-33.1,25.9-73.7,60.5-78.5c5.9-0.8,10.2-5.8,10.2-11.9V11.9
	c0-2.7,2.2-5,5-5V0h-1.5C75.4,0.7,70.8,5.8,70.8,11.9z"/>
</svg>
