<?xml version="1.0" encoding="utf-8"?>
<!-- Generator: Adobe Illustrator 20.1.0, SVG Export Plug-In . SVG Version: 6.00 Build 0)  -->
<svg version="1.1" id="Layer_1" xmlns="http://www.w3.org/2000/svg" xmlns:xlink="http://www.w3.org/1999/xlink" x="0px" y="0px"
	 viewBox="0 0 82.8 644.1" style="enable-background:new 0 0 82.8 644.1;" xml:space="preserve">
<style type="text/css">
	.st0{fill:#FFFFFF;}
	.st1{fill:#BBD4E5;}
</style>
<g>
	<g>
		<path class="st0" d="M70.8,0c6.6,0,12,5.4,12,12V0H70.8z"/>
		<path class="st0" d="M70.8,644.1h12v-12C82.8,638.7,77.4,644.1,70.8,644.1z"/>
		<path class="st0" d="M75.8,115.1h-0.3c-17.2,0-34.1,9-47.4,25.3C15.6,155.8,7,175.9,7,194.1v256c0,35.7,30.5,77.3,68.5,77.3H76
			c3.9,0.6,6.8,3.9,6.8,7.9V107.5C82.8,111.5,79.8,114.7,75.8,115.1z"/>
	</g>
	<polygon class="st1" points="0,637.1 0,637.1 0,644.1 70.8,644.1 70.8,644.1 0,644.1 	"/>
	<path class="st1" d="M70.8,0H0v7h70.8c2.8,0,5,2.2,5,5v95.5c0,0.4-0.3,0.5-0.5,0.6C33.5,108.3,0,154.4,0,194.1v256
		c0,20,9,40.8,22.7,57.2c14.5,17.4,33.1,27,52.4,27.1c0.4,0.1,0.6,0.5,0.6,0.9v96.8c0,2.8-2.2,5-5,5H0v7h70.8c6.6,0,12-5.4,12-12
		v-96.8c0-4-2.9-7.3-6.8-7.9h-0.5c-38,0-68.5-41.6-68.5-77.3v-256c0-18.2,8.6-38.3,21.1-53.7c13.3-16.3,30.2-25.3,47.4-25.3h0.3
		c4-0.4,7-3.6,7-7.6V12C82.8,5.4,77.4,0,70.8,0z"/>
</g>
</svg>
